{
  "accessors": [
    {
      "bufferView": 2,
      "componentType": 5126,
      "count": 2202,
      "max": [
        6.245880126953125,
        5.1719598770141602,
        10.041440010070801
      ],
      "min": [
        -6.245880126953125,
        -2.3905000686645508,
        -0.010080032981932163
      ],
      "type": "VEC3"
    },
    {
      "bufferView": 2,
      "byteOffset": 26424,
      "componentType": 5126,
      "count": 2202,
      "max": [
        0.99993586540222168,
        1,
        0.99999105930328369
      ],
      "min": [
        -0.99989503622055054,
        -1,
        -0.99998611211776733
      ],
      "type": "VEC3"
    },
    {
      "bufferView": 3,
      "componentType": 5126,
      "count": 2202,
      "max": [
        1,
        0.99949353933334351,
        1,
        1
      ],
      "min": [
        -1,
        -0.99992096424102783,
        -0.99988687038421631,
        -1
      ],
      "type": "VEC4"
    },
    {
      "bufferView": 1,
      "componentType": 5126,
      "count": 2202,
      "max": [
        0.99400001764297485,
        0.99700003862380981
      ],
      "min": [
        0.001999974250793457,
        0.0060000419616699219
      ],
      "type": "VEC2"
    },
    {
      "bufferView": 0,
      "componentType": 5125,
      "count": 9999,
      "max": [
        2201
      ],
      "min": [
        0
      ],
      "type": "SCALAR"
    },
    {
      "bufferView": 2,
      "byteOffset": 52848,
      "componentType": 5126,
      "count": 1559,
      "max": [
        2.2419400215148926,
        1.1566696166992188,
        10.041440010070801
      ],
      "min": [
        -6.245880126953125,
        -2.4690701961517334,
        2.9687199592590332
      ],
      "type": "VEC3"
    },
    {
      "bufferView": 2,
      "byteOffset": 71556,
      "componentType": 5126,
      "count": 1559,
      "max": [
        0.99984848499298096,
        1,
        0.99998390674591064
      ],
      "min": [
        -0.99972224235534668,
        -1,
        -0.99949419498443604
      ],
      "type": "VEC3"
    },
    {
      "bufferView": 3,
      "byteOffset": 35232,
      "componentType": 5126,
      "count": 1559,
      "max": [
        1,
        0.99998575448989868,
        0.99999791383743286,
        1
      ],
      "min": [
        -0.99999505281448364,
        -0.99991649389266968,
        -0.94620358943939209,
        -1
      ],
      "type": "VEC4"
    },
    {
      "bufferView": 1,
      "byteOffset": 17616,
      "componentType": 5126,
      "count": 1559,
      "max": [
        0.99599999189376831,
        0.98900002241134644
      ],
      "min": [
        0.001999974250793457,
        0.0080000162124633789
      ],
      "type": "VEC2"
    },
    {
      "bufferView": 0,
      "byteOffset": 39996,
      "componentType": 5125,
      "count": 6894,
      "max": [
        1558
      ],
      "min": [
        0
      ],
      "type": "SCALAR"
    }
  ],
  "asset": {
    "extras": {
      "author": "web125546 (https://sketchfab.com/web125546)",
      "license": "CC-BY-4.0 (http://creativecommons.org/licenses/by/4.0/)",
      "source": "https://sketchfab.com/models/0ec2db5862fb4e799863911372f9c164",
      "title": "Epic Mickey in the morning"
    },
    "generator": "Sketchfab-3.20.7",
    "version": "2.0"
  },
  "bufferViews": [
    {
      "buffer": 0,
      "byteLength": 67572,
      "byteOffset": 0,
      "name": "floatBufferViews",
      "target": 34963
    },
    {
      "buffer": 0,
      "byteLength": 30088,
      "byteOffset": 67572,
      "byteStride": 8,
      "name": "floatBufferViews",
      "target": 34962
    },
    {
      "buffer": 0,
      "byteLength": 90264,
      "byteOffset": 97660,
      "byteStride": 12,
      "name": "floatBufferViews",
      "target": 34962
    },
    {
      "buffer": 0,
      "byteLength": 60176,
      "byteOffset": 187924,
      "byteStride": 16,
      "name": "floatBufferViews",
      "target": 34962
    }
  ],
  "buffers": [
    {
      "byteLength": 248100,
      "uri": "scene.bin"
    }
  ],
  "images": [
    {
      "uri": "textures/Texture_emissive.jpg"
    },
    {
      "uri": "textures/Texture_metallicRoughness.png"
    },
    {
      "uri": "textures/Texture_baseColor.png"
    }
  ],
  "materials": [
    {
      "doubleSided": true,
      "emissiveFactor": [
        0,
        0,
        0
      ],
      "emissiveTexture": {
        "index": 0,
        "texCoord": 0
      },
      "name": "Texture",
      "pbrMetallicRoughness": {
        "baseColorFactor": [
          1,
          1,
          1,
          1
        ],
        "baseColorTexture": {
          "index": 2,
          "texCoord": 0
        },
        "metallicFactor": 0,
        "metallicRoughnessTexture": {
          "index": 1,
          "texCoord": 0
        },
        "roughnessFactor": 1
      }
    }
  ],
  "meshes": [
    {
      "primitives": [
        {
          "attributes": {
            "NORMAL": 1,
            "POSITION": 0,
            "TANGENT": 2,
            "TEXCOORD_0": 3
          },
          "indices": 4,
          "material": 0,
          "mode": 4
        }
      ]
    },
    {
      "primitives": [
        {
          "attributes": {
            "NORMAL": 6,
            "POSITION": 5,
            "TANGENT": 7,
            "TEXCOORD_0": 8
          },
          "indices": 9,
          "material": 0,
          "mode": 4
        }
      ]
    }
  ],
  "nodes": [
    {
      "children": [
        1
      ],
      "name": "RootNode (gltf orientation matrix)",
      "rotation": [
        -0.70710678118654746,
        -0,
        -0,
        0.70710678118654757
      ]
    },
    {
      "children": [
        2
      ],
      "name": "RootNode (model correction matrix)"
    },
    {
      "children": [
        3,
        4
      ],
      "name": "Epic_Mickey_-_Mickey_Mouse[1].obj.cleaner.gles"
    },
    {
      "mesh": 0,
      "name": ""
    },
    {
      "mesh": 1,
      "name": ""
    }
  ],
  "samplers": [
    {
      "magFilter": 9729,
      "minFilter": 9987,
      "wrapS": 10497,
      "wrapT": 10497
    }
  ],
  "scene": 0,
  "scenes": [
    {
      "name": "OSG_Scene",
      "nodes": [
        0
      ]
    }
  ],
  "textures": [
    {
      "sampler": 0,
      "source": 0
    },
    {
      "sampler": 0,
      "source": 1
    },
    {
      "sampler": 0,
      "source": 2
    }
  ]
}

