{
  "accessors": [
    {
      "bufferView": 2,
      "componentType": 5126,
      "count": 65532,
      "max": [
        0.77367198467254639,
        9.1869392395019531,
        0.5447700023651123
      ],
      "min": [
        -5.4952049255371094,
        4.7261447906494141,
        -2.5006809234619141
      ],
      "type": "VEC3"
    },
    {
      "bufferView": 2,
      "byteOffset": 786384,
      "componentType": 5126,
      "count": 65532,
      "max": [
        0.99994409084320068,
        0.99966275691986084,
        0.99983900785446167
      ],
      "min": [
        -0.99761933088302612,
        -0.99995285272598267,
        -0.99973577260971069
      ],
      "type": "VEC3"
    },
    {
      "bufferView": 3,
      "componentType": 5126,
      "count": 65532,
      "max": [
        0.99976646900177002,
        0.99881982803344727,
        0.99878185987472534,
        1
      ],
      "min": [
        -0.99999779462814331,
        -0.99866074323654175,
        -0.99867922067642212,
        -1
      ],
      "type": "VEC4"
    },
    {
      "bufferView": 3,
      "byteOffset": 1048512,
      "componentType": 5126,
      "count": 65532,
      "max": [
        0.88627451658248901,
        0.88627451658248901,
        0.85098040103912354,
        1
      ],
      "min": [
        0.039215687662363052,
        0.015686275437474251,
        0.011764706112444401,
        1
      ],
      "type": "VEC4"
    },
    {
      "bufferView": 1,
      "componentType": 5126,
      "count": 65532,
      "max": [
        0.99046599864959717,
        0.9995499849319458
      ],
      "min": [
        0.10040199756622314,
        1.7000000298139639e-05
      ],
      "type": "VEC2"
    },
    {
      "bufferView": 0,
      "componentType": 5125,
      "count": 362217,
      "max": [
        65531
      ],
      "min": [
        0
      ],
      "type": "SCALAR"
    },
    {
      "bufferView": 2,
      "byteOffset": 1572768,
      "componentType": 5126,
      "count": 65532,
      "max": [
        -1.303881049156189,
        9.4260463714599609,
        -0.086801998317241669
      ],
      "min": [
        -4.9678659439086914,
        4.812263011932373,
        -2.4530820846557617
      ],
      "type": "VEC3"
    },
    {
      "bufferView": 2,
      "byteOffset": 2359152,
      "componentType": 5126,
      "count": 65532,
      "max": [
        0.9915737509727478,
        0.99989026784896851,
        0.9996645450592041
      ],
      "min": [
        -0.99989801645278931,
        -0.99994397163391113,
        -0.99976813793182373
      ],
      "type": "VEC3"
    },
    {
      "bufferView": 3,
      "byteOffset": 2097024,
      "componentType": 5126,
      "count": 65532,
      "max": [
        0.99971061944961548,
        0.99800604581832886,
        0.9993215799331665,
        1
      ],
      "min": [
        -0.99998104572296143,
        -0.99966442584991455,
        -0.99998807907104492,
        -1
      ],
      "type": "VEC4"
    },
    {
      "bufferView": 3,
      "byteOffset": 3145536,
      "componentType": 5126,
      "count": 65532,
      "max": [
        0.89019608497619629,
        0.89411765336990356,
        0.88235294818878174,
        1
      ],
      "min": [
        0.12549020349979401,
        0.043137256056070328,
        0.039215687662363052,
        1
      ],
      "type": "VEC4"
    },
    {
      "bufferView": 1,
      "byteOffset": 524256,
      "componentType": 5126,
      "count": 65532,
      "max": [
        0.99050998687744141,
        1
      ],
      "min": [
        0.0044550001621246338,
        0.00048099999548867345
      ],
      "type": "VEC2"
    },
    {
      "bufferView": 0,
      "byteOffset": 1448868,
      "componentType": 5125,
      "count": 340992,
      "max": [
        65531
      ],
      "min": [
        0
      ],
      "type": "SCALAR"
    },
    {
      "bufferView": 2,
      "byteOffset": 3145536,
      "componentType": 5126,
      "count": 65532,
      "max": [
        0.96442902088165283,
        10.015838623046875,
        0.20536500215530396
      ],
      "min": [
        -3.5243771076202393,
        5.1037349700927734,
        -2.2812340259552002
      ],
      "type": "VEC3"
    },
    {
      "bufferView": 2,
      "byteOffset": 3931920,
      "componentType": 5126,
      "count": 65532,
      "max": [
        0.9973406195640564,
        0.9999421238899231,
        0.99999624490737915
      ],
      "min": [
        -0.99974524974822998,
        -0.99955976009368896,
        -0.99775797128677368
      ],
      "type": "VEC3"
    },
    {
      "bufferView": 3,
      "byteOffset": 4194048,
      "componentType": 5126,
      "count": 65532,
      "max": [
        0.9999886155128479,
        0.99146223068237305,
        0.9997178316116333,
        1
      ],
      "min": [
        -0.99999648332595825,
        -0.99722379446029663,
        -0.98196685314178467,
        -1
      ],
      "type": "VEC4"
    },
    {
      "bufferView": 3,
      "byteOffset": 5242560,
      "componentType": 5126,
      "count": 65532,
      "max": [
        0.88235294818878174,
        0.88235294818878174,
        0.85098040103912354,
        1
      ],
      "min": [
        0.094117648899555206,
        0.039215687662363052,
        0.023529412224888802,
        1
      ],
      "type": "VEC4"
    },
    {
      "bufferView": 1,
      "byteOffset": 1048512,
      "componentType": 5126,
      "count": 65532,
      "max": [
        0.98395699262619019,
        0.91596901416778564
      ],
      "min": [
        0.094057001173496246,
        0.0020810000132769346
      ],
      "type": "VEC2"
    },
    {
      "bufferView": 0,
      "byteOffset": 2812836,
      "componentType": 5125,
      "count": 348327,
      "max": [
        65531
      ],
      "min": [
        0
      ],
      "type": "SCALAR"
    },
    {
      "bufferView": 2,
      "byteOffset": 4718304,
      "componentType": 5126,
      "count": 65532,
      "max": [
        0.15418300032615662,
        9.470794677734375,
        -0.063277997076511383
      ],
      "min": [
        -3.0628900527954102,
        5.1777229309082031,
        -2.2417640686035156
      ],
      "type": "VEC3"
    },
    {
      "bufferView": 2,
      "byteOffset": 5504688,
      "componentType": 5126,
      "count": 65532,
      "max": [
        0.99979966878890991,
        0.9999963641166687,
        0.99998188018798828
      ],
      "min": [
        -0.99993914365768433,
        -0.9997747540473938,
        -0.99997848272323608
      ],
      "type": "VEC3"
    },
    {
      "bufferView": 3,
      "byteOffset": 6291072,
      "componentType": 5126,
      "count": 65532,
      "max": [
        0.98062461614608765,
        0.99992841482162476,
        0.99977350234985352,
        1
      ],
      "min": [
        -0.99997681379318237,
        -0.9975934624671936,
        -0.99953973293304443,
        -1
      ],
      "type": "VEC4"
    },
    {
      "bufferView": 3,
      "byteOffset": 7339584,
      "componentType": 5126,
      "count": 65532,
      "max": [
        0.87058824300765991,
        0.88235294818878174,
        0.84705883264541626,
        1
      ],
      "min": [
        0.035294119268655777,
        0.0078431377187371254,
        0,
        1
      ],
      "type": "VEC4"
    },
    {
      "bufferView": 1,
      "byteOffset": 1572768,
      "componentType": 5126,
      "count": 65532,
      "max": [
        0.98015999794006348,
        0.96306997537612915
      ],
      "min": [
        0.13188500702381134,
        0.032210998237133026
      ],
      "type": "VEC2"
    },
    {
      "bufferView": 0,
      "byteOffset": 4206144,
      "componentType": 5125,
      "count": 334692,
      "max": [
        65531
      ],
      "min": [
        0
      ],
      "type": "SCALAR"
    },
    {
      "bufferView": 2,
      "byteOffset": 6291072,
      "componentType": 5126,
      "count": 65532,
      "max": [
        0.52277302742004395,
        9.5443487167358398,
        -0.025554999709129333
      ],
      "min": [
        -2.0368990898132324,
        5.3464531898498535,
        -2.171950101852417
      ],
      "type": "VEC3"
    },
    {
      "bufferView": 2,
      "byteOffset": 7077456,
      "componentType": 5126,
      "count": 65532,
      "max": [
        0.99988788366317749,
        0.99999064207077026,
        0.99997001886367798
      ],
      "min": [
        -0.99993914365768433,
        -0.99997526407241821,
        -0.99996000528335571
      ],
      "type": "VEC3"
    },
    {
      "bufferView": 3,
      "byteOffset": 8388096,
      "componentType": 5126,
      "count": 65532,
      "max": [
        0.9999845027923584,
        0.99734723567962646,
        0.99967080354690552,
        1
      ],
      "min": [
        -0.99999833106994629,
        -0.99998170137405396,
        -0.99945348501205444,
        -1
      ],
      "type": "VEC4"
    },
    {
      "bufferView": 3,
      "byteOffset": 9436608,
      "componentType": 5126,
      "count": 65532,
      "max": [
        0.87843137979507446,
        0.87058824300765991,
        0.84705883264541626,
        1
      ],
      "min": [
        0.050980392843484879,
        0.0078431377187371254,
        0.0078431377187371254,
        1
      ],
      "type": "VEC4"
    },
    {
      "bufferView": 1,
      "byteOffset": 2097024,
      "componentType": 5126,
      "count": 65532,
      "max": [
        0.77715897560119629,
        0.98848897218704224
      ],
      "min": [
        0.11636199802160263,
        0.031191000714898109
      ],
      "type": "VEC2"
    },
    {
      "bufferView": 0,
      "byteOffset": 5544912,
      "componentType": 5125,
      "count": 347280,
      "max": [
        65531
      ],
      "min": [
        0
      ],
      "type": "SCALAR"
    },
    {
      "bufferView": 2,
      "byteOffset": 7863840,
      "componentType": 5126,
      "count": 65532,
      "max": [
        1.0519369840621948,
        10.02692699432373,
        0.20452700555324554
      ],
      "min": [
        -1.4918969869613647,
        5.4928040504455566,
        -2.1667020320892334
      ],
      "type": "VEC3"
    },
    {
      "bufferView": 2,
      "byteOffset": 8650224,
      "componentType": 5126,
      "count": 65532,
      "max": [
        0.99990612268447876,
        0.99997514486312866,
        0.99997735023498535
      ],
      "min": [
        -0.99974220991134644,
        -0.99998998641967773,
        -0.99999362230300903
      ],
      "type": "VEC3"
    },
    {
      "bufferView": 3,
      "byteOffset": 10485120,
      "componentType": 5126,
      "count": 65532,
      "max": [
        0.99998056888580322,
        0.99999904632568359,
        0.99974006414413452,
        1
      ],
      "min": [
        -0.99999946355819702,
        -0.99923384189605713,
        -0.99422967433929443,
        -1
      ],
      "type": "VEC4"
    },
    {
      "bufferView": 3,
      "byteOffset": 11533632,
      "componentType": 5126,
      "count": 65532,
      "max": [
        0.85098040103912354,
        0.84313726425170898,
        0.82352942228317261,
        1
      ],
      "min": [
        0.035294119268655777,
        0,
        0,
        1
      ],
      "type": "VEC4"
    },
    {
      "bufferView": 1,
      "byteOffset": 2621280,
      "componentType": 5126,
      "count": 65532,
      "max": [
        0.96054297685623169,
        0.99896597862243652
      ],
      "min": [
        0,
        2.9000000722589903e-05
      ],
      "type": "VEC2"
    },
    {
      "bufferView": 0,
      "byteOffset": 6934032,
      "componentType": 5125,
      "count": 326793,
      "max": [
        65531
      ],
      "min": [
        0
      ],
      "type": "SCALAR"
    },
    {
      "bufferView": 2,
      "byteOffset": 9436608,
      "componentType": 5126,
      "count": 65533,
      "max": [
        1.2570259571075439,
        9.8374490737915039,
        0.62657797336578369
      ],
      "min": [
        -0.71982002258300781,
        5.5825209617614746,
        -2.0357239246368408
      ],
      "type": "VEC3"
    },
    {
      "bufferView": 2,
      "byteOffset": 10223004,
      "componentType": 5126,
      "count": 65533,
      "max": [
        0.99952578544616699,
        0.99991273880004883,
        0.99991708993911743
      ],
      "min": [
        -0.99998849630355835,
        -0.9999765157699585,
        -0.99999362230300903
      ],
      "type": "VEC3"
    },
    {
      "bufferView": 3,
      "byteOffset": 12582144,
      "componentType": 5126,
      "count": 65533,
      "max": [
        0.99999195337295532,
        0.99989992380142212,
        0.99950587749481201,
        1
      ],
      "min": [
        -0.99999994039535522,
        -0.99999886751174927,
        -0.99991083145141602,
        -1
      ],
      "type": "VEC4"
    },
    {
      "bufferView": 3,
      "byteOffset": 13630672,
      "componentType": 5126,
      "count": 65533,
      "max": [
        0.89411765336990356,
        0.84705883264541626,
        0.85490196943283081,
        1
      ],
      "min": [
        0.035294119268655777,
        0.011764706112444401,
        0.0039215688593685627,
        1
      ],
      "type": "VEC4"
    },
    {
      "bufferView": 1,
      "byteOffset": 3145536,
      "componentType": 5126,
      "count": 65533,
      "max": [
        0.98873001337051392,
        0.99270099401473999
      ],
      "min": [
        0.0016009999671950936,
        0.00069199997233226895
      ],
      "type": "VEC2"
    },
    {
      "bufferView": 0,
      "byteOffset": 8241204,
      "componentType": 5125,
      "count": 320967,
      "max": [
        65532
      ],
      "min": [
        0
      ],
      "type": "SCALAR"
    },
    {
      "bufferView": 2,
      "byteOffset": 11009400,
      "componentType": 5126,
      "count": 65532,
      "max": [
        1.7779090404510498,
        9.8066911697387695,
        0.60735601186752319
      ],
      "min": [
        -0.39219099283218384,
        5.6312661170959473,
        -2.0137300491333008
      ],
      "type": "VEC3"
    },
    {
      "bufferView": 2,
      "byteOffset": 11795784,
      "componentType": 5126,
      "count": 65532,
      "max": [
        0.99984085559844971,
        0.99998778104782104,
        0.99998009204864502
      ],
      "min": [
        -0.9999692440032959,
        -0.99999690055847168,
        -0.99957388639450073
      ],
      "type": "VEC3"
    },
    {
      "bufferView": 3,
      "byteOffset": 14679200,
      "componentType": 5126,
      "count": 65532,
      "max": [
        0.99999374151229858,
        0.99999111890792847,
        0.99991273880004883,
        1
      ],
      "min": [
        -0.99999916553497314,
        -0.99996703863143921,
        -0.99995815753936768,
        -1
      ],
      "type": "VEC4"
    },
    {
      "bufferView": 3,
      "byteOffset": 15727712,
      "componentType": 5126,
      "count": 65532,
      "max": [
        0.89019608497619629,
        0.84705883264541626,
        0.85490196943283081,
        1
      ],
      "min": [
        0.047058824449777603,
        0.0039215688593685627,
        0.0039215688593685627,
        1
      ],
      "type": "VEC4"
    },
    {
      "bufferView": 1,
      "byteOffset": 3669800,
      "componentType": 5126,
      "count": 65532,
      "max": [
        0.89695298671722412,
        0.97694200277328491
      ],
      "min": [
        0,
        0.0003009999927598983
      ],
      "type": "VEC2"
    },
    {
      "bufferView": 0,
      "byteOffset": 9525072,
      "componentType": 5125,
      "count": 328536,
      "max": [
        65531
      ],
      "min": [
        0
      ],
      "type": "SCALAR"
    },
    {
      "bufferView": 2,
      "byteOffset": 12582168,
      "componentType": 5126,
      "count": 60933,
      "max": [
        1.9478939771652222,
        10.016538619995117,
        0.62666398286819458
      ],
      "min": [
        -5.2013630867004395,
        4.8084001541137695,
        -2.461190938949585
      ],
      "type": "VEC3"
    },
    {
      "bufferView": 2,
      "byteOffset": 13313364,
      "componentType": 5126,
      "count": 60933,
      "max": [
        0.99998998641967773,
        0.99991273880004883,
        0.99998009204864502
      ],
      "min": [
        -0.99953949451446533,
        -0.99992221593856812,
        -0.99920833110809326
      ],
      "type": "VEC3"
    },
    {
      "bufferView": 3,
      "byteOffset": 16776224,
      "componentType": 5126,
      "count": 60933,
      "max": [
        0.99999195337295532,
        0.99995279312133789,
        0.99994802474975586,
        1
      ],
      "min": [
        -0.9999997615814209,
        -0.99948424100875854,
        -0.99999755620956421,
        -1
      ],
      "type": "VEC4"
    },
    {
      "bufferView": 3,
      "byteOffset": 17751152,
      "componentType": 5126,
      "count": 60933,
      "max": [
        0.89803922176361084,
        0.86666667461395264,
        0.87058824300765991,
        1
      ],
      "min": [
        0.074509806931018829,
        0.035294119268655777,
        0.027450980618596077,
        1
      ],
      "type": "VEC4"
    },
    {
      "bufferView": 1,
      "byteOffset": 4194056,
      "componentType": 5126,
      "count": 60933,
      "max": [
        0.9887930154800415,
        0.97668302059173584
      ],
      "min": [
        0.00078599998960271478,
        0.00042600001324899495
      ],
      "type": "VEC2"
    },
    {
      "bufferView": 0,
      "byteOffset": 10839216,
      "componentType": 5125,
      "count": 290190,
      "max": [
        60932
      ],
      "min": [
        0
      ],
      "type": "SCALAR"
    }
  ],
  "asset": {
    "extras": {
      "author": "Matthew Strong (https://sketchfab.com/technolizardms)",
      "license": "CC-BY-NC-4.0 (http://creativecommons.org/licenses/by-nc/4.0/)",
      "source": "https://sketchfab.com/3d-models/bearded-dragon-c1e0b39951b84b0f8ab3c518a050f619",
      "title": "Bearded Dragon"
    },
    "generator": "Sketchfab-6.33.0",
    "version": "2.0"
  },
  "bufferViews": [
    {
      "buffer": 0,
      "byteLength": 11999976,
      "byteOffset": 0,
      "name": "floatBufferViews",
      "target": 34963
    },
    {
      "buffer": 0,
      "byteLength": 4681520,
      "byteOffset": 11999976,
      "byteStride": 8,
      "name": "floatBufferViews",
      "target": 34962
    },
    {
      "buffer": 0,
      "byteLength": 14044560,
      "byteOffset": 16681496,
      "byteStride": 12,
      "name": "floatBufferViews",
      "target": 34962
    },
    {
      "buffer": 0,
      "byteLength": 18726080,
      "byteOffset": 30726056,
      "byteStride": 16,
      "name": "floatBufferViews",
      "target": 34962
    }
  ],
  "buffers": [
    {
      "byteLength": 49452136,
      "uri": "scene.bin"
    }
  ],
  "images": [
    {
      "uri": "textures/LQlizard1_baseColor.jpeg"
    }
  ],
  "materials": [
    {
      "doubleSided": true,
      "emissiveFactor": [
        0.40000000000000002,
        0.40000000000000002,
        0.40000000000000002
      ],
      "emissiveTexture": {
        "index": 0,
        "texCoord": 0
      },
      "name": "LQlizard1",
      "pbrMetallicRoughness": {
        "baseColorFactor": [
          1,
          1,
          1,
          1
        ],
        "baseColorTexture": {
          "index": 0,
          "texCoord": 0
        },
        "metallicFactor": 0,
        "roughnessFactor": 1
      }
    }
  ],
  "meshes": [
    {
      "primitives": [
        {
          "attributes": {
            "COLOR_0": 3,
            "NORMAL": 1,
            "POSITION": 0,
            "TANGENT": 2,
            "TEXCOORD_0": 4
          },
          "indices": 5,
          "material": 0,
          "mode": 4
        }
      ]
    },
    {
      "primitives": [
        {
          "attributes": {
            "COLOR_0": 9,
            "NORMAL": 7,
            "POSITION": 6,
            "TANGENT": 8,
            "TEXCOORD_0": 10
          },
          "indices": 11,
          "material": 0,
          "mode": 4
        }
      ]
    },
    {
      "primitives": [
        {
          "attributes": {
            "COLOR_0": 15,
            "NORMAL": 13,
            "POSITION": 12,
            "TANGENT": 14,
            "TEXCOORD_0": 16
          },
          "indices": 17,
          "material": 0,
          "mode": 4
        }
      ]
    },
    {
      "primitives": [
        {
          "attributes": {
            "COLOR_0": 21,
            "NORMAL": 19,
            "POSITION": 18,
            "TANGENT": 20,
            "TEXCOORD_0": 22
          },
          "indices": 23,
          "material": 0,
          "mode": 4
        }
      ]
    },
    {
      "primitives": [
        {
          "attributes": {
            "COLOR_0": 27,
            "NORMAL": 25,
            "POSITION": 24,
            "TANGENT": 26,
            "TEXCOORD_0": 28
          },
          "indices": 29,
          "material": 0,
          "mode": 4
        }
      ]
    },
    {
      "primitives": [
        {
          "attributes": {
            "COLOR_0": 33,
            "NORMAL": 31,
            "POSITION": 30,
            "TANGENT": 32,
            "TEXCOORD_0": 34
          },
          "indices": 35,
          "material": 0,
          "mode": 4
        }
      ]
    },
    {
      "primitives": [
        {
          "attributes": {
            "COLOR_0": 39,
            "NORMAL": 37,
            "POSITION": 36,
            "TANGENT": 38,
            "TEXCOORD_0": 40
          },
          "indices": 41,
          "material": 0,
          "mode": 4
        }
      ]
    },
    {
      "primitives": [
        {
          "attributes": {
            "COLOR_0": 45,
            "NORMAL": 43,
            "POSITION": 42,
            "TANGENT": 44,
            "TEXCOORD_0": 46
          },
          "indices": 47,
          "material": 0,
          "mode": 4
        }
      ]
    },
    {
      "primitives": [
        {
          "attributes": {
            "COLOR_0": 51,
            "NORMAL": 49,
            "POSITION": 48,
            "TANGENT": 50,
            "TEXCOORD_0": 52
          },
          "indices": 53,
          "material": 0,
          "mode": 4
        }
      ]
    }
  ],
  "nodes": [
    {
      "children": [
        1
      ],
      "name": "RootNode (gltf orientation matrix)",
      "rotation": [
        -0.70710678118654746,
        -0,
        -0,
        0.70710678118654757
      ]
    },
    {
      "children": [
        2
      ],
      "matrix": [
        0.99998748302459717,
        -0.0046032802201807499,
        0.0019673367496579885,
        0,
        0.0050060562789440155,
        0.91953063011169434,
        -0.39298638701438904,
        0,
        1.6089560239684886e-16,
        0.3929913341999054,
        0.91954219341278076,
        0,
        -0.036949612200260162,
        0.95365655422210693,
        2.8269805908203125,
        1
      ],
      "name": "RootNode (model correction matrix)"
    },
    {
      "children": [
        3,
        4,
        5,
        6,
        7,
        8,
        9,
        10,
        11
      ],
      "name": "LQlizard1.obj.cleaner.materialmerger.gles"
    },
    {
      "mesh": 0,
      "name": ""
    },
    {
      "mesh": 1,
      "name": ""
    },
    {
      "mesh": 2,
      "name": ""
    },
    {
      "mesh": 3,
      "name": ""
    },
    {
      "mesh": 4,
      "name": ""
    },
    {
      "mesh": 5,
      "name": ""
    },
    {
      "mesh": 6,
      "name": ""
    },
    {
      "mesh": 7,
      "name": ""
    },
    {
      "mesh": 8,
      "name": ""
    }
  ],
  "samplers": [
    {
      "magFilter": 9729,
      "minFilter": 9987,
      "wrapS": 10497,
      "wrapT": 10497
    }
  ],
  "scene": 0,
  "scenes": [
    {
      "name": "OSG_Scene",
      "nodes": [
        0
      ]
    }
  ],
  "textures": [
    {
      "sampler": 0,
      "source": 0
    }
  ]
}

