{
  "accessors": [
    {
      "bufferView": 2,
      "componentType": 5126,
      "count": 257,
      "max": [
        1,
        0.99452191591262817,
        150
      ],
      "min": [
        -1,
        -0.99452197551727295,
        0
      ],
      "type": "VEC3"
    },
    {
      "bufferView": 2,
      "byteOffset": 3084,
      "componentType": 5126,
      "count": 257,
      "max": [
        1,
        0.99452215433120728,
        1
      ],
      "min": [
        -1,
        -0.99452221393585205,
        -1
      ],
      "type": "VEC3"
    },
    {
      "bufferView": 3,
      "componentType": 5126,
      "count": 257,
      "max": [
        0.99452215433120728,
        1,
        0,
        1
      ],
      "min": [
        -0.9945220947265625,
        -1,
        0,
        1
      ],
      "type": "VEC4"
    },
    {
      "bufferView": 0,
      "componentType": 5125,
      "count": 360,
      "max": [
        256
      ],
      "min": [
        0
      ],
      "type": "SCALAR"
    },
    {
      "bufferView": 2,
      "byteOffset": 6168,
      "componentType": 5126,
      "count": 1427,
      "max": [
        3,
        2.9835658073425293,
        1.8500001430511475
      ],
      "min": [
        -3,
        -2.9835658073425293,
        0
      ],
      "type": "VEC3"
    },
    {
      "bufferView": 2,
      "byteOffset": 23292,
      "componentType": 5126,
      "count": 1427,
      "max": [
        1,
        0.99452197551727295,
        0.99848896265029907
      ],
      "min": [
        -1,
        -0.99452197551727295,
        -1
      ],
      "type": "VEC3"
    },
    {
      "bufferView": 3,
      "byteOffset": 4112,
      "componentType": 5126,
      "count": 1427,
      "max": [
        0.99453061819076538,
        1,
        0.99866235256195068,
        1
      ],
      "min": [
        -0.99453055858612061,
        -1,
        -0.99866235256195068,
        -1
      ],
      "type": "VEC4"
    },
    {
      "bufferView": 0,
      "byteOffset": 1440,
      "componentType": 5125,
      "count": 1428,
      "max": [
        1426
      ],
      "min": [
        0
      ],
      "type": "SCALAR"
    },
    {
      "bufferView": 2,
      "byteOffset": 40416,
      "componentType": 5126,
      "count": 900,
      "max": [
        76.960151672363281,
        50,
        15.113856315612793
      ],
      "min": [
        -75,
        -85.1142578125,
        -43.573204040527344
      ],
      "type": "VEC3"
    },
    {
      "bufferView": 2,
      "byteOffset": 51216,
      "componentType": 5126,
      "count": 900,
      "max": [
        0.6181948184967041,
        0.33079731464385986,
        0.98960405588150024
      ],
      "min": [
        -0.58781653642654419,
        -0.52371978759765625,
        0.7241063117980957
      ],
      "type": "VEC3"
    },
    {
      "bufferView": 3,
      "byteOffset": 26944,
      "componentType": 5126,
      "count": 900,
      "max": [
        0.98664164543151855,
        -0.065858162939548492,
        0.47535166144371033,
        1
      ],
      "min": [
        0.78276950120925903,
        -0.39011770486831665,
        -0.60538268089294434,
        1
      ],
      "type": "VEC4"
    },
    {
      "bufferView": 1,
      "componentType": 5126,
      "count": 900,
      "max": [
        1,
        1.0000001192092896
      ],
      "min": [
        0,
        0
      ],
      "type": "VEC2"
    },
    {
      "bufferView": 0,
      "byteOffset": 7152,
      "componentType": 5125,
      "count": 900,
      "max": [
        899
      ],
      "min": [
        0
      ],
      "type": "SCALAR"
    },
    {
      "bufferView": 2,
      "byteOffset": 62016,
      "componentType": 5126,
      "count": 24,
      "max": [
        10,
        10,
        5.0942878723144531
      ],
      "min": [
        -10,
        -10,
        0
      ],
      "type": "VEC3"
    },
    {
      "bufferView": 2,
      "byteOffset": 62304,
      "componentType": 5126,
      "count": 24,
      "max": [
        0.77859514951705933,
        0.77859514951705933,
        1
      ],
      "min": [
        -0.77859514951705933,
        -0.77859514951705933,
        -1
      ],
      "type": "VEC3"
    },
    {
      "bufferView": 3,
      "byteOffset": 41344,
      "componentType": 5126,
      "count": 24,
      "max": [
        1,
        1,
        0,
        1
      ],
      "min": [
        -1,
        -1,
        0,
        1
      ],
      "type": "VEC4"
    },
    {
      "bufferView": 0,
      "byteOffset": 10752,
      "componentType": 5125,
      "count": 36,
      "max": [
        23
      ],
      "min": [
        0
      ],
      "type": "SCALAR"
    }
  ],
  "asset": {
    "extras": {
      "author": "Veysel Gök (https://sketchfab.com/veysel.gok.vg)",
      "license": "CC-BY-4.0 (http://creativecommons.org/licenses/by/4.0/)",
      "source": "https://sketchfab.com/models/e94fdd812b3a4265ad6b3ca063c52088",
      "title": "Turkish Flag - Türk Bayrağı"
    },
    "generator": "Sketchfab-3.20.7",
    "version": "2.0"
  },
  "bufferViews": [
    {
      "buffer": 0,
      "byteLength": 10896,
      "byteOffset": 0,
      "name": "floatBufferViews",
      "target": 34963
    },
    {
      "buffer": 0,
      "byteLength": 7200,
      "byteOffset": 10896,
      "byteStride": 8,
      "name": "floatBufferViews",
      "target": 34962
    },
    {
      "buffer": 0,
      "byteLength": 62592,
      "byteOffset": 18096,
      "byteStride": 12,
      "name": "floatBufferViews",
      "target": 34962
    },
    {
      "buffer": 0,
      "byteLength": 41728,
      "byteOffset": 80688,
      "byteStride": 16,
      "name": "floatBufferViews",
      "target": 34962
    }
  ],
  "buffers": [
    {
      "byteLength": 122416,
      "uri": "scene.bin"
    }
  ],
  "images": [
    {
      "uri": "textures/bayrakflag_baseColor.png"
    },
    {
      "uri": "textures/bayrakflag_emissive.png"
    }
  ],
  "materials": [
    {
      "doubleSided": true,
      "emissiveFactor": [
        0,
        0,
        0
      ],
      "name": "direkpole",
      "pbrMetallicRoughness": {
        "baseColorFactor": [
          1,
          1,
          1,
          1
        ],
        "metallicFactor": 1,
        "roughnessFactor": 0.66901676830000001
      }
    },
    {
      "doubleSided": true,
      "emissiveFactor": [
        0.38300304880000002,
        0.38300304880000002,
        0.38300304880000002
      ],
      "emissiveTexture": {
        "index": 1,
        "texCoord": 0
      },
      "name": "bayrakflag",
      "pbrMetallicRoughness": {
        "baseColorFactor": [
          1,
          1,
          1,
          1
        ],
        "baseColorTexture": {
          "index": 0,
          "texCoord": 0
        },
        "metallicFactor": 1,
        "roughnessFactor": 0.88243140239999995
      }
    },
    {
      "doubleSided": true,
      "emissiveFactor": [
        0,
        0,
        0
      ],
      "name": "zeminfloor",
      "pbrMetallicRoughness": {
        "baseColorFactor": [
          0.18431400000000001,
          0.18431400000000001,
          0.18431400000000001,
          1
        ],
        "metallicFactor": 1,
        "roughnessFactor": 0.65072408540000004
      }
    }
  ],
  "meshes": [
    {
      "name": "direk_direk/pole_0",
      "primitives": [
        {
          "attributes": {
            "NORMAL": 1,
            "POSITION": 0,
            "TANGENT": 2
          },
          "indices": 3,
          "material": 0,
          "mode": 4
        }
      ]
    },
    {
      "name": "direk_baslik_direk/pole_0",
      "primitives": [
        {
          "attributes": {
            "NORMAL": 5,
            "POSITION": 4,
            "TANGENT": 6
          },
          "indices": 7,
          "material": 0,
          "mode": 4
        }
      ]
    },
    {
      "name": "Plane001_bayrak/flag_0",
      "primitives": [
        {
          "attributes": {
            "NORMAL": 9,
            "POSITION": 8,
            "TANGENT": 10,
            "TEXCOORD_0": 11
          },
          "indices": 12,
          "material": 1,
          "mode": 4
        }
      ]
    },
    {
      "name": "Box001_zemin/floor_0",
      "primitives": [
        {
          "attributes": {
            "NORMAL": 14,
            "POSITION": 13,
            "TANGENT": 15
          },
          "indices": 16,
          "material": 2,
          "mode": 4
        }
      ]
    }
  ],
  "nodes": [
    {
      "children": [
        1
      ],
      "name": "RootNode (gltf orientation matrix)",
      "rotation": [
        -0.70710678118654746,
        -0,
        -0,
        0.70710678118654757
      ]
    },
    {
      "children": [
        2
      ],
      "name": "RootNode (model correction matrix)"
    },
    {
      "children": [
        3
      ],
      "matrix": [
        1,
        0,
        0,
        0,
        0,
        0,
        1,
        0,
        0,
        -1,
        0,
        0,
        0,
        0,
        0,
        1
      ],
      "name": "738cb11abd3c4eb9bf6873c2687d4986.fbx"
    },
    {
      "children": [
        4,
        6,
        8,
        10,
        12
      ],
      "name": "RootNode"
    },
    {
      "children": [
        5
      ],
      "matrix": [
        1,
        0,
        0,
        0,
        0,
        2.2204460492503131e-16,
        -1,
        0,
        0,
        1,
        2.2204460492503131e-16,
        0,
        0,
        3.383887767791748,
        1.4791443447847996e-07,
        1
      ],
      "name": "direk"
    },
    {
      "mesh": 0,
      "name": "direk_direk/pole_0"
    },
    {
      "children": [
        7
      ],
      "matrix": [
        0.5827675461769104,
        0,
        0,
        0,
        0,
        1.2940038955398201e-16,
        -0.5827675461769104,
        0,
        0,
        0.5827675461769104,
        1.2940038955398201e-16,
        0,
        0,
        153.23136901855469,
        -2.2332617390929954e-06,
        1
      ],
      "name": "direk_baslik"
    },
    {
      "mesh": 1,
      "name": "direk_baslik_direk/pole_0"
    },
    {
      "children": [
        9
      ],
      "matrix": [
        0.32835957407951355,
        0,
        0,
        0,
        0,
        0.32835957407950916,
        5.3496567008250197e-08,
        0,
        0,
        -5.3496567008250197e-08,
        0.32835957407950916,
        0,
        25.627737045288086,
        132.875244140625,
        5.8081618590222206e-06,
        1
      ],
      "name": "Plane001"
    },
    {
      "mesh": 2,
      "name": "Plane001_bayrak/flag_0"
    },
    {
      "children": [
        11
      ],
      "matrix": [
        1,
        0,
        0,
        0,
        0,
        2.2204460492503131e-16,
        -1,
        0,
        0,
        1,
        2.2204460492503131e-16,
        0,
        0,
        0,
        0,
        1
      ],
      "name": "Box001"
    },
    {
      "mesh": 3,
      "name": "Box001_zemin/floor_0"
    },
    {
      "children": [
        13
      ],
      "matrix": [
        0.89616008067751141,
        0,
        -0.44373089795514142,
        0,
        0.43775074867817215,
        0.16362248304703786,
        0.88408255557567794,
        0,
        0.072604351328112049,
        -0.98652302712178086,
        0.14663193760808824,
        0,
        200.29925537109375,
        196.115966796875,
        369.525390625,
        1
      ],
      "name": "Direct001"
    },
    {
      "children": [
        14
      ],
      "matrix": [
        1,
        0,
        0,
        0,
        0,
        2.2204460492503131e-16,
        1,
        0,
        0,
        -1,
        2.2204460492503131e-16,
        0,
        0,
        0,
        0,
        1
      ],
      "name": ""
    },
    {
      "name": ""
    }
  ],
  "samplers": [
    {
      "magFilter": 9729,
      "minFilter": 9987,
      "wrapS": 10497,
      "wrapT": 10497
    }
  ],
  "scene": 0,
  "scenes": [
    {
      "name": "OSG_Scene",
      "nodes": [
        0
      ]
    }
  ],
  "textures": [
    {
      "sampler": 0,
      "source": 0
    },
    {
      "sampler": 0,
      "source": 1
    }
  ]
}

