{
  "accessors": [
    {
      "bufferView": 2,
      "componentType": 5126,
      "count": 17420,
      "max": [
        3.0626840591430664,
        0.93633699417114258,
        1.7061810493469238
      ],
      "min": [
        -2.2258069515228271,
        -0.93086600303649902,
        -0.0055040000006556511
      ],
      "type": "VEC3"
    },
    {
      "bufferView": 2,
      "byteOffset": 209040,
      "componentType": 5126,
      "count": 17420,
      "max": [
        0.99997508525848389,
        0.99986696243286133,
        0.99989151954650879
      ],
      "min": [
        -0.99880474805831909,
        -0.99991106986999512,
        -0.99999499320983887
      ],
      "type": "VEC3"
    },
    {
      "bufferView": 3,
      "componentType": 5126,
      "count": 17420,
      "max": [
        0.99980449676513672,
        0.99999713897705078,
        0.99992930889129639,
        1
      ],
      "min": [
        -0.99998277425765991,
        -0.99998217821121216,
        -0.99999356269836426,
        -1
      ],
      "type": "VEC4"
    },
    {
      "bufferView": 1,
      "componentType": 5126,
      "count": 17420,
      "max": [
        1,
        1
      ],
      "min": [
        0,
        0
      ],
      "type": "VEC2"
    },
    {
      "bufferView": 0,
      "componentType": 5125,
      "count": 60243,
      "max": [
        17419
      ],
      "min": [
        0
      ],
      "type": "SCALAR"
    }
  ],
  "asset": {
    "extras": {
      "author": "FletchTech (https://sketchfab.com/FletchTech)",
      "license": "CC-BY-4.0 (http://creativecommons.org/licenses/by/4.0/)",
      "source": "https://sketchfab.com/3d-models/ankylosaurus-d1c0d08fb44a4c24834c35efe71defe3",
      "title": "Ankylosaurus"
    },
    "generator": "Sketchfab-6.34.0",
    "version": "2.0"
  },
  "bufferViews": [
    {
      "buffer": 0,
      "byteLength": 240972,
      "byteOffset": 0,
      "name": "floatBufferViews",
      "target": 34963
    },
    {
      "buffer": 0,
      "byteLength": 139360,
      "byteOffset": 240972,
      "byteStride": 8,
      "name": "floatBufferViews",
      "target": 34962
    },
    {
      "buffer": 0,
      "byteLength": 418080,
      "byteOffset": 380332,
      "byteStride": 12,
      "name": "floatBufferViews",
      "target": 34962
    },
    {
      "buffer": 0,
      "byteLength": 278720,
      "byteOffset": 798412,
      "byteStride": 16,
      "name": "floatBufferViews",
      "target": 34962
    }
  ],
  "buffers": [
    {
      "byteLength": 1077132,
      "uri": "scene.bin"
    }
  ],
  "images": [
    {
      "uri": "textures/Ankylosaurus_baseColor.png"
    }
  ],
  "materials": [
    {
      "doubleSided": true,
      "name": "Ankylosaurus",
      "pbrMetallicRoughness": {
        "baseColorFactor": [
          1,
          1,
          1,
          1
        ],
        "baseColorTexture": {
          "index": 0,
          "texCoord": 0
        },
        "metallicFactor": 0,
        "roughnessFactor": 1
      }
    }
  ],
  "meshes": [
    {
      "primitives": [
        {
          "attributes": {
            "NORMAL": 1,
            "POSITION": 0,
            "TANGENT": 2,
            "TEXCOORD_0": 3
          },
          "indices": 4,
          "material": 0,
          "mode": 4
        }
      ]
    }
  ],
  "nodes": [
    {
      "children": [
        1
      ],
      "name": "RootNode (gltf orientation matrix)",
      "rotation": [
        -0.70710678118654746,
        -0,
        -0,
        0.70710678118654757
      ]
    },
    {
      "children": [
        2
      ],
      "name": "RootNode (model correction matrix)"
    },
    {
      "children": [
        3
      ],
      "name": "Ankylosaurus.OBJ.cleaner.materialmerger.gles"
    },
    {
      "mesh": 0,
      "name": ""
    }
  ],
  "samplers": [
    {
      "magFilter": 9729,
      "minFilter": 9987,
      "wrapS": 10497,
      "wrapT": 10497
    }
  ],
  "scene": 0,
  "scenes": [
    {
      "name": "OSG_Scene",
      "nodes": [
        0
      ]
    }
  ],
  "textures": [
    {
      "sampler": 0,
      "source": 0
    }
  ]
}

