{
  "accessors": [
    {
      "bufferView": 2,
      "componentType": 5126,
      "count": 557,
      "max": [
        9.3818359375,
        4.036865234375,
        19.770259857177734
      ],
      "min": [
        -9.3818359375,
        -4.1188960075378418,
        0
      ],
      "type": "VEC3"
    },
    {
      "bufferView": 2,
      "byteOffset": 6684,
      "componentType": 5126,
      "count": 557,
      "max": [
        0.99816489219665527,
        0.99866616725921631,
        0.99980854988098145
      ],
      "min": [
        -0.99522858858108521,
        -0.99866616725921631,
        -0.99914276599884033
      ],
      "type": "VEC3"
    },
    {
      "bufferView": 3,
      "componentType": 5126,
      "count": 557,
      "max": [
        0.9994196891784668,
        0.99883860349655151,
        0.99967682361602783,
        1
      ],
      "min": [
        -0.99971252679824829,
        -0.9840465784072876,
        -0.99944967031478882,
        -1
      ],
      "type": "VEC4"
    },
    {
      "bufferView": 1,
      "componentType": 5126,
      "count": 557,
      "max": [
        0.99609380960464478,
        -0.012695309706032276
      ],
      "min": [
        0.00390625,
        -0.99609380960464478
      ],
      "type": "VEC2"
    },
    {
      "bufferView": 0,
      "componentType": 5125,
      "count": 1806,
      "max": [
        556
      ],
      "min": [
        0
      ],
      "type": "SCALAR"
    },
    {
      "bufferView": 2,
      "byteOffset": 13368,
      "componentType": 5126,
      "count": 25,
      "max": [
        2.3149409294128418,
        -0.24536129832267761,
        16.791749954223633
      ],
      "min": [
        -2.3149409294128418,
        -2.1306149959564209,
        11.376219749450684
      ],
      "type": "VEC3"
    },
    {
      "bufferView": 2,
      "byteOffset": 13668,
      "componentType": 5126,
      "count": 25,
      "max": [
        0.99676698446273804,
        0.89296829700469971,
        0.73607820272445679
      ],
      "min": [
        0.32207703590393066,
        -0.89296829700469971,
        -0.41248562932014465
      ],
      "type": "VEC3"
    },
    {
      "bufferView": 3,
      "byteOffset": 8912,
      "componentType": 5126,
      "count": 25,
      "max": [
        0.93068736791610718,
        0.8893592357635498,
        0.97754478454589844,
        1
      ],
      "min": [
        0.080346472561359406,
        -0.86637723445892334,
        -0.88686740398406982,
        -1
      ],
      "type": "VEC4"
    },
    {
      "bufferView": 1,
      "byteOffset": 4456,
      "componentType": 5126,
      "count": 25,
      "max": [
        1.046875,
        -0.0087890634313225746
      ],
      "min": [
        -0.046875,
        -0.49414059519767761
      ],
      "type": "VEC2"
    },
    {
      "bufferView": 0,
      "byteOffset": 7224,
      "componentType": 5125,
      "count": 75,
      "max": [
        24
      ],
      "min": [
        0
      ],
      "type": "SCALAR"
    }
  ],
  "asset": {
    "extras": {
      "author": "Frozenevan (https://sketchfab.com/Frozenevan)",
      "license": "CC-BY-4.0 (http://creativecommons.org/licenses/by/4.0/)",
      "source": "https://sketchfab.com/3d-models/luigi-3e227f51ffb94dac8b7cacdd9ce3c657",
      "title": "Luigi"
    },
    "generator": "Sketchfab-6.87.0",
    "version": "2.0"
  },
  "bufferViews": [
    {
      "buffer": 0,
      "byteLength": 7524,
      "byteOffset": 0,
      "name": "floatBufferViews",
      "target": 34963
    },
    {
      "buffer": 0,
      "byteLength": 4656,
      "byteOffset": 7524,
      "byteStride": 8,
      "name": "floatBufferViews",
      "target": 34962
    },
    {
      "buffer": 0,
      "byteLength": 13968,
      "byteOffset": 12180,
      "byteStride": 12,
      "name": "floatBufferViews",
      "target": 34962
    },
    {
      "buffer": 0,
      "byteLength": 9312,
      "byteOffset": 26148,
      "byteStride": 16,
      "name": "floatBufferViews",
      "target": 34962
    }
  ],
  "buffers": [
    {
      "byteLength": 35460,
      "uri": "scene.bin"
    }
  ],
  "images": [
    {
      "uri": "textures/all_tx_baseColor.png"
    },
    {
      "uri": "textures/eye_tx_baseColor.png"
    }
  ],
  "materials": [
    {
      "doubleSided": true,
      "name": "all_tx",
      "pbrMetallicRoughness": {
        "baseColorFactor": [
          1,
          1,
          1,
          1
        ],
        "baseColorTexture": {
          "index": 0,
          "texCoord": 0
        },
        "metallicFactor": 0,
        "roughnessFactor": 0.59999999999999998
      }
    },
    {
      "doubleSided": true,
      "name": "eye_tx",
      "pbrMetallicRoughness": {
        "baseColorFactor": [
          1,
          1,
          1,
          1
        ],
        "baseColorTexture": {
          "index": 1,
          "texCoord": 0
        },
        "metallicFactor": 0,
        "roughnessFactor": 0.59999999999999998
      }
    }
  ],
  "meshes": [
    {
      "primitives": [
        {
          "attributes": {
            "NORMAL": 1,
            "POSITION": 0,
            "TANGENT": 2,
            "TEXCOORD_0": 3
          },
          "indices": 4,
          "material": 0,
          "mode": 4
        }
      ]
    },
    {
      "primitives": [
        {
          "attributes": {
            "NORMAL": 6,
            "POSITION": 5,
            "TANGENT": 7,
            "TEXCOORD_0": 8
          },
          "indices": 9,
          "material": 1,
          "mode": 4
        }
      ]
    }
  ],
  "nodes": [
    {
      "children": [
        1
      ],
      "name": "RootNode (gltf orientation matrix)",
      "rotation": [
        -0.70710678118654746,
        -0,
        -0,
        0.70710678118654757
      ]
    },
    {
      "children": [
        2
      ],
      "name": "RootNode (model correction matrix)"
    },
    {
      "children": [
        3,
        4
      ],
      "name": "cefb6fb2d2e74a63b3f559cb683faa25.obj.cleaner.materialmerger.gles"
    },
    {
      "mesh": 0,
      "name": ""
    },
    {
      "mesh": 1,
      "name": ""
    }
  ],
  "samplers": [
    {
      "magFilter": 9729,
      "minFilter": 9987,
      "wrapS": 10497,
      "wrapT": 10497
    }
  ],
  "scene": 0,
  "scenes": [
    {
      "name": "OSG_Scene",
      "nodes": [
        0
      ]
    }
  ],
  "textures": [
    {
      "sampler": 0,
      "source": 0
    },
    {
      "sampler": 0,
      "source": 1
    }
  ]
}

